<?xml version="1.0" encoding="UTF-8" standalone="no"?>
<svg
   xmlns:dc="http://purl.org/dc/elements/1.1/"
   xmlns:cc="http://creativecommons.org/ns#"
   xmlns:rdf="http://www.w3.org/1999/02/22-rdf-syntax-ns#"
   xmlns:svg="http://www.w3.org/2000/svg"
   xmlns="http://www.w3.org/2000/svg"
   xmlns:sodipodi="http://sodipodi.sourceforge.net/DTD/sodipodi-0.dtd"
   xmlns:inkscape="http://www.inkscape.org/namespaces/inkscape"
   aria-hidden="true"
   focusable="false"
   data-prefix="fab"
   data-icon="vk"
   class="svg-inline--fa fa-vk fa-w-18"
   role="img"
   viewBox="0 0 47.134209 28"
   version="1.1"
   id="svg845"
   sodipodi:docname="vk-brands_small.svg"
   inkscape:version="1.0.2-2 (e86c870879, 2021-01-15)"
   width="47.134209"
   height="28">
  <metadata
     id="metadata851">
    <rdf:RDF>
      <cc:Work
         rdf:about="">
        <dc:format>image/svg+xml</dc:format>
        <dc:type
           rdf:resource="http://purl.org/dc/dcmitype/StillImage" />
        <dc:title></dc:title>
      </cc:Work>
    </rdf:RDF>
  </metadata>
  <defs
     id="defs849" />
  <sodipodi:namedview
     pagecolor="#ffffff"
     bordercolor="#666666"
     borderopacity="1"
     objecttolerance="10"
     gridtolerance="10"
     guidetolerance="10"
     inkscape:pageopacity="0"
     inkscape:pageshadow="2"
     inkscape:window-width="1920"
     inkscape:window-height="1001"
     id="namedview847"
     showgrid="false"
     inkscape:zoom="0.81054688"
     inkscape:cx="-79.38453"
     inkscape:cy="68.63756"
     inkscape:window-x="-9"
     inkscape:window-y="-9"
     inkscape:window-maximized="1"
     inkscape:current-layer="svg845"
     inkscape:document-rotation="0"
     fit-margin-top="0"
     fit-margin-left="0"
     fit-margin-right="0"
     fit-margin-bottom="0" />
  <path
     fill="currentColor"
     d="M 46.05999,1.89876 C 46.38374,0.805 46.05999,0 44.50248,0 h -5.15374 c -1.3125,0 -1.91625,0.69125 -2.24,1.46125 0,0 -2.625,6.39625 -6.335,10.54375 -1.19875,1.19875 -1.75,1.58375 -2.40625,1.58375 -0.32375,0 -0.82249,-0.385 -0.82249,-1.47875 V 1.89876 C 27.545,0.58625 27.17749,0 26.0925,0 H 17.99 c -0.8225,0 -1.31251,0.61251 -1.31251,1.18125 0,1.2425 1.85501,1.53125 2.0475,5.03125 v 7.595 c 0,1.6625 -0.2975,1.96875 -0.95374,1.96875 -1.75,0 -6.00251,-6.4225 -8.52251,-13.7725 C 8.74124,0.5775 8.2425,0 6.92125,0 H 1.7675 C 0.2975,0 0,0.69125 0,1.46125 0,2.82625 1.75,9.6075 8.14624,18.5675 12.40749,24.68375 18.41,28 23.86999,28 c 3.28125,0 3.68375,-0.735 3.68375,-2.00375 0,-5.845 -0.2975,-6.39625 1.3475,-6.39625 0.76125,0 2.07375,0.385 5.13626,3.33375 3.49999,3.5 4.07749,5.06625 6.03749,5.06625 h 5.15374 c 1.47001,0 2.21376,-0.735 1.78501,-2.1875 -0.98,-3.05375 -7.60375,-9.33625 -7.90125,-9.75625 -0.76125,-0.98 -0.5425,-1.4175 0,-2.2925 0.009,-0.009 6.3,-8.86375 6.9475,-11.86499 z"
     id="path843"
     style="stroke-width:0.0875" />
</svg>
